<?xml version="1.0" encoding="utf-8"?>
<svg version="1.1" id="Capa_1" xmlns="http://www.w3.org/2000/svg" xmlns:xlink="http://www.w3.org/1999/xlink" x="0px" y="0px"
	 viewBox="0 0 323.3 212.7"  xml:space="preserve">
<path d="M266.8,211.7c-12.5,0-23.9,0-35.9,0c0-47.4,0-94.4,0-142.3c-18.4,18.5-36.1,36.3-53.9,54.2c-0.5-0.2-1-0.5-1.5-0.7
	c0-4.6,0-9.1,0-13.7c0-10.3-0.2-20.7,0-31c0-1.9,0.8-4.3,2.2-5.7c23-23.4,46.2-46.7,69.3-70c0.4-0.4,1-0.8,1.7-1.3
	c1.3,1.2,2.5,2.3,3.7,3.5c22.2,22.2,44.3,44.4,66.5,66.4c2.6,2.6,3.6,5.1,3.5,8.8c-0.3,12.7-0.3,25.3-0.4,38c0,1.6-0.2,3.2-0.3,5.2
	c-18.1-18.2-35.8-36-53.4-53.8c-0.5,0.2-1,0.5-1.5,0.7C266.8,117.2,266.8,164.3,266.8,211.7z" fill="#ffffff"/>
<path d="M92.4,211.7c-12.5,0-23.9,0-35.9,0c0-47.4,0-94.4,0-142.3c-18.4,18.5-36.1,36.3-53.9,54.2c-0.5-0.2-1-0.5-1.5-0.7
	c0-4.6,0-9.1,0-13.7c0-10.3-0.2-20.7,0-31c0-1.9,0.8-4.3,2.2-5.7c23-23.4,46.2-46.7,69.3-70c0.4-0.4,1-0.8,1.7-1.3
	c1.3,1.2,2.5,2.3,3.7,3.5c22.2,22.2,44.3,44.4,66.5,66.4c2.6,2.6,3.6,5.1,3.5,8.8c-0.3,12.7-0.3,25.3-0.4,38c0,1.6-0.2,3.2-0.3,5.2
	c-18.1-18.2-35.8-36-53.4-53.8c-0.5,0.2-1,0.5-1.5,0.7C92.4,117.2,92.4,164.3,92.4,211.7z" fill="#ffffff"/>
</svg>
